<svg xmlns="http://www.w3.org/2000/svg" viewBox="0 0 556 225">

<g transform="translate(0.000000,294.000000) scale(0.100000,-0.100000)"
fill="currentColor" stroke="none">
<path d="M4040 2741 c0 -12 62 -95 102 -137 l30 -32 -13 -98 c-17 -126 -18
-117 11 -131 87 -41 454 -89 485 -63 7 6 16 34 19 63 10 78 14 82 78 69 67
-13 108 -29 108 -41 0 -5 -17 -31 -37 -58 -20 -26 -44 -67 -53 -91 -10 -25
-27 -49 -41 -55 -24 -13 -69 -71 -69 -91 0 -11 80 -56 100 -56 15 0 40 56 40
89 0 17 -5 40 -11 53 -12 28 14 90 66 156 19 24 35 52 35 63 0 24 -39 76 -156
208 -66 75 -97 102 -119 106 -36 6 -529 55 -556 55 -10 0 -19 -4 -19 -9z m235
-36 c83 -8 175 -18 205 -20 153 -14 145 -11 209 -83 132 -150 154 -176 144
-179 -6 -2 -75 12 -154 31 -105 25 -179 36 -275 41 l-132 7 -54 57 c-124 128
-159 182 -110 167 10 -3 85 -12 167 -21z m100 -231 c61 -3 144 -12 185 -21
117 -23 109 -17 99 -71 -16 -85 -14 -82 -82 -82 -60 0 -211 15 -252 25 -156
36 -155 36 -155 59 0 28 20 138 27 149 3 5 20 -5 37 -22 31 -30 36 -31 141
-37z m379 -353 c9 -13 -4 -42 -16 -35 -5 3 -4 12 4 22 11 13 11 15 -2 7 -8 -4
-23 -15 -32 -23 -10 -8 -18 -11 -18 -7 0 12 33 44 47 44 6 1 14 -3 17 -8z
m-18 -46 c5 -12 9 -13 20 -4 12 10 13 9 8 -5 -3 -9 -8 -16 -11 -16 -12 0 -43
22 -43 30 0 16 20 12 26 -5z"/>
<path d="M650 2381 c0 -50 19 -65 89 -71 49 -4 56 -8 54 -25 -6 -61 -46 -379
-63 -495 -67 -482 -92 -701 -80 -715 11 -13 38 -15 154 -13 139 3 141 3 144
26 2 13 -4 34 -12 48 -15 21 -24 24 -80 24 -43 0 -67 5 -75 14 -13 15 -7 70
34 336 15 95 82 580 108 785 8 61 13 113 10 118 -2 4 -67 7 -144 7 l-139 0 0
-39z"/>
<path d="M4245 2219 c-59 -13 -110 -59 -124 -111 -9 -31 -11 -168 -9 -498 3
-517 1 -501 88 -548 38 -20 55 -23 112 -19 78 5 124 28 153 77 19 34 20 53 23
480 2 245 0 464 -3 487 -14 97 -126 158 -240 132z m105 -125 c13 -13 15 -77
15 -457 0 -496 1 -487 -65 -487 -29 0 -42 5 -50 20 -7 13 -9 171 -8 472 l3
452 25 13 c27 14 57 9 80 -13z"/>
<path d="M1440 1693 c0 -483 2 -521 19 -559 28 -62 79 -89 166 -89 84 0 140
25 170 76 19 33 20 55 23 545 1 281 0 519 -4 528 -10 25 -100 23 -114 -3 -6
-13 -10 -191 -10 -511 0 -320 -4 -498 -10 -511 -12 -22 -78 -27 -98 -7 -9 9
-12 137 -12 514 0 570 5 534 -81 534 l-49 0 0 -517z"/>
<path d="M2335 2198 c-3 -7 -4 -265 -3 -573 l3 -560 37 -6 c21 -3 48 -1 60 5
l23 12 -3 309 c-2 222 0 305 8 293 6 -9 28 -110 50 -225 47 -244 78 -375 90
-387 10 -10 88 -12 98 -2 8 8 13 1100 5 1129 -7 26 -98 25 -113 -2 -6 -13 -7
-104 0 -283 12 -335 12 -384 1 -372 -5 5 -35 140 -66 299 -31 160 -63 309 -71
333 -16 42 -16 42 -65 42 -31 0 -51 -5 -54 -12z"/>
<path d="M3220 1640 c0 -638 -6 -592 73 -582 53 6 60 24 53 150 -13 245 -16
517 -6 532 10 16 9 19 15 -50 2 -24 34 -188 92 -473 15 -70 31 -134 37 -142
12 -15 70 -27 92 -18 12 4 14 97 14 579 l0 574 -48 0 c-26 0 -53 -5 -59 -11
-7 -7 -9 -114 -6 -327 3 -198 1 -311 -5 -302 -5 8 -35 146 -67 305 -31 160
-63 300 -71 313 -12 18 -24 22 -64 22 l-50 0 0 -570z"/>
</g>
</svg>
