<svg width="16" height="22" viewBox="0 0 16 22" fill="currentColor" xmlns="http://www.w3.org/2000/svg">
<path d="M11.4877 14.3375C13.5007 12.942 15 10.792 15 8.14286C15 6.24845 14.2625 4.43164 12.9497 3.09209C11.637 1.75255 9.85652 1 8 1C6.14348 1 4.36301 1.75255 3.05025 3.09209C1.7375 4.43164 1 6.24845 1 8.14286V17.3647C1 19.3406 2.56363 21 4.5 21C6.43637 21 7.42381 19.842 7.88144 19.2143C8.52762 18.3299 9.70625 15.5732 11.4877 14.3375Z" stroke="currentColor" stroke-width="2" stroke-linecap="round" stroke-linejoin="round"/>
<path d="M3.80005 13.1428V7.78569C3.80005 5.62497 5.69005 3.85712 8.00005 3.85712C10.31 3.85712 12.2 5.62497 12.2 7.78569" stroke="currentColor" stroke-width="2" stroke-linecap="round" stroke-linejoin="round"/>
<path d="M3.80005 10.2411C4.8938 9.43749 7.29217 9.57142 7.29217 9.57142C8.42967 9.57142 9.09336 10.8848 8.42967 11.8303C8.42967 11.8303 6.81705 13.7232 6.5983 14.5714" stroke="currentColor" stroke-width="2" stroke-linecap="round" stroke-linejoin="round"/>
</svg>
