<svg width="39" height="39" viewBox="0 0 39 39" fill="none" xmlns="http://www.w3.org/2000/svg">
<path d="M19.5 10.75C20.75 4.99324 25.4711 2.05379 35.75 2.00001C35.9143 1.99929 36.0771 2.03652 36.2291 2.10955C36.381 2.18258 36.5191 2.28997 36.6353 2.42553C36.7515 2.5611 36.8435 2.72215 36.9061 2.89941C36.9687 3.07667 37.0006 3.26663 37 3.45834V29.7083C37 30.0951 36.8683 30.466 36.6339 30.7395C36.3995 31.013 36.0815 31.1667 35.75 31.1667C25.75 31.1667 21.8867 33.5191 19.5 37M19.5 10.75C18.25 4.99324 13.5289 2.05379 3.25001 2.00001C3.08568 1.99929 2.92286 2.03652 2.77092 2.10955C2.61899 2.18258 2.48094 2.28997 2.36474 2.42553C2.24855 2.5611 2.1565 2.72215 2.0939 2.89941C2.0313 3.07667 1.99939 3.26663 2.00001 3.45834V29.5324C2.00001 30.4329 2.47813 31.1667 3.25001 31.1667C13.25 31.1667 17.1273 33.5365 19.5 37M19.5 10.75V37" stroke="currentColor" stroke-width="4" stroke-linecap="round" stroke-linejoin="round"/>
</svg>
