<svg width="39" height="39" viewBox="0 0 39 39" fill="none" xmlns="http://www.w3.org/2000/svg">
<path d="M15.124 2C22.3584 2.00015 28.2471 7.88962 28.2471 15.124V15.126C28.2497 17.8883 27.3753 20.5799 25.75 22.8135L24.7441 24.1963L25.9531 25.4043L36.1719 35.624L35.624 36.1719L25.4043 25.9531L24.1963 24.7441L22.8135 25.75C20.5799 27.3753 17.8883 28.2497 15.126 28.2471H15.124C7.88962 28.2471 2.00015 22.3584 2 15.124C2 7.88953 7.88953 2 15.124 2ZM19.8486 3.71484C17.5923 2.78014 15.1092 2.53531 12.7139 3.01172C10.3185 3.48816 8.11854 4.66466 6.3916 6.3916C4.66466 8.11854 3.48816 10.3185 3.01172 12.7139C2.53531 15.1092 2.78014 17.5923 3.71484 19.8486C4.64958 22.105 6.23286 24.0339 8.26367 25.3906C10.2944 26.7472 12.6819 27.4709 15.124 27.4707H15.126C18.3988 27.4669 21.5363 26.1649 23.8506 23.8506C26.1649 21.5363 27.4669 18.3988 27.4707 15.126V15.124C27.4709 12.6819 26.7472 10.2944 25.3906 8.26367C24.0339 6.23286 22.105 4.64958 19.8486 3.71484Z" stroke="currentColor" stroke-width="4"/>
</svg>
