<svg width="39" height="39" viewBox="0 0 39 39" fill="none" xmlns="http://www.w3.org/2000/svg">
<path d="M34.9072 31.4307L34.9551 31.5547H23.5459L23.5938 31.4307H34.9072ZM8.17773 28.3057C6.49414 29.776 5.24325 30.6115 4.78906 30.8994C4.79023 30.8911 4.78973 30.8823 4.79199 30.874C4.79795 30.8523 4.80577 30.8393 4.80957 30.834C5.579 30.3766 6.76669 29.5267 8.17773 28.3057ZM18.7598 26.248C18.7855 26.2695 18.807 26.2866 18.8232 26.2998C18.8351 26.3095 18.8456 26.3189 18.8486 26.3213L18.8613 26.3311L18.873 26.3398C18.8661 26.3343 18.8689 26.3341 18.875 26.3447C18.8761 26.3467 18.8757 26.35 18.877 26.3525C18.8161 26.3007 18.742 26.2351 18.6543 26.1572C18.6956 26.1926 18.7303 26.2235 18.7598 26.248ZM25.8477 5.93652C25.8532 5.95373 25.8584 5.97509 25.8584 5.99902C25.8584 6.02272 25.8531 6.04346 25.8477 6.06055H2.01074C2.00524 6.04344 2.00004 6.02278 2 5.99902C2 5.97503 2.00518 5.95375 2.01074 5.93652H25.8477Z" stroke="currentColor" stroke-width="4"/>
</svg>
