<svg width="43" height="42" viewBox="0 0 43 42" fill="none" xmlns="http://www.w3.org/2000/svg">
<path d="M2 17.6004C2 16.0988 2.02535 14.6305 2.078 13.2128C2.23986 8.58532 2.32176 6.27062 4.20355 4.37323C6.08534 2.47778 8.46634 2.37638 13.2244 2.17163C15.9816 2.05587 18.7409 1.99866 21.5004 2.00002C24.3865 2.00002 27.1653 2.05853 29.7764 2.17163C34.5345 2.37638 36.9136 2.47778 38.7973 4.37518C40.6791 6.27062 40.761 8.58532 40.9229 13.2128C41.0257 16.1369 41.0257 19.0638 40.9229 21.988C40.761 26.6154 40.6791 28.9301 38.7973 30.8275C36.9155 32.7229 34.5345 32.8244 29.7764 33.0291C28.3438 33.0902 26.865 33.1357 25.3401 33.1656C23.897 33.1929 23.1736 33.2046 22.5378 33.4484C21.9021 33.6921 21.3678 34.1465 20.2992 35.063L16.0501 38.7096C15.8433 38.8868 15.59 39.001 15.3202 39.0385C15.0505 39.0761 14.7756 39.0355 14.5283 38.9216C14.2809 38.8077 14.0714 38.6252 13.9246 38.3958C13.7779 38.1663 13.7 37.8996 13.7003 37.6273V33.0486L13.2244 33.0291C8.46634 32.8244 6.08729 32.7229 4.20355 30.8256C2.32176 28.9301 2.23986 26.6154 2.078 21.988C2.02629 20.526 2.00028 19.0632 2 17.6004Z" stroke="currentColor" stroke-width="4" stroke-linecap="round" stroke-linejoin="round"/>
<path d="M21.5009 11.7506V8.8255M13.7007 11.7506H29.301M15.6507 26.3759C20.9392 22.8502 25.0987 18.137 26.376 11.7506M24.4259 23.4508C21.2824 20.9353 19.6171 18.254 18.919 16.6257" stroke="currentColor" stroke-width="4" stroke-linecap="round" stroke-linejoin="round"/>
</svg>
