<svg width="39" height="39" viewBox="0 0 39 39" fill="none" xmlns="http://www.w3.org/2000/svg">
<path d="M20.0292 14.2917C18.9245 14.1857 17.813 14.4141 16.847 14.9458C15.8811 15.4774 15.1078 16.2863 14.633 17.2617C14.1582 18.2371 14.0052 19.3313 14.1949 20.3944C14.3847 21.4576 14.9078 22.4378 15.6928 23.2008C16.4777 23.9638 17.4861 24.4723 18.5798 24.6567C19.6736 24.8411 20.7993 24.6924 21.8027 24.2309C22.8061 23.7694 23.6383 23.0177 24.1853 22.0788C24.7322 21.1398 24.9673 20.0594 24.8582 18.9856C24.7338 17.7819 24.1851 16.6569 23.305 15.8015C22.4249 14.946 21.2676 14.4126 20.0292 14.2917ZM32.9934 19.5C32.99 20.0689 32.947 20.6369 32.8647 21.2001L36.6682 24.0999C36.8338 24.2333 36.9454 24.4195 36.9831 24.6254C37.0209 24.8313 36.9823 25.0435 36.8743 25.2243L33.2761 31.2757C33.1668 31.4548 32.996 31.5907 32.7938 31.6593C32.5916 31.728 32.3709 31.7251 32.1706 31.6511L28.3933 30.1725C28.185 30.0919 27.9593 30.0628 27.7366 30.0878C27.5139 30.1128 27.301 30.1911 27.117 30.3157C26.5405 30.7015 25.9348 31.0443 25.3049 31.3411C25.1069 31.4347 24.9356 31.5742 24.8062 31.7473C24.6768 31.9205 24.5932 32.1219 24.5629 32.3339L23.9967 36.2501C23.9595 36.4569 23.8496 36.6448 23.6857 36.7816C23.5218 36.9183 23.3141 36.9956 23.0982 37H15.9018C15.6894 36.9964 15.4846 36.9226 15.3211 36.7908C15.1577 36.6589 15.0453 36.4769 15.0025 36.2747L14.4371 32.3641C14.4054 32.1498 14.3196 31.9465 14.1876 31.7721C14.0555 31.5978 13.8811 31.4579 13.68 31.3648C13.0509 31.0697 12.4471 30.7259 11.8746 30.3369C11.6912 30.2129 11.4791 30.1352 11.2571 30.1108C11.0352 30.0864 10.8106 30.1161 10.6034 30.1971L6.82683 31.6748C6.62669 31.7488 6.40608 31.7519 6.20386 31.6834C6.00164 31.6149 5.83078 31.4792 5.72137 31.3002L2.12318 25.2488C2.015 25.068 1.97635 24.8558 2.01409 24.6499C2.05184 24.444 2.16353 24.2578 2.3293 24.1244L5.54386 21.6711C5.71997 21.5353 5.85839 21.3588 5.94654 21.1577C6.03468 20.9566 6.06978 20.7373 6.04864 20.5197C6.01835 20.1787 5.99984 19.8386 5.99984 19.4975C5.99984 19.1565 6.01751 18.8213 6.04864 18.4876C6.06747 18.2713 6.03065 18.0539 5.94151 17.8549C5.85236 17.6559 5.71369 17.4816 5.53797 17.3477L2.32509 14.8944C2.16202 14.7604 2.05267 14.5748 2.01622 14.3703C1.97976 14.1657 2.01852 13.9552 2.12571 13.7757L5.7239 7.7243C5.83317 7.5452 6.00398 7.40935 6.20621 7.34068C6.40844 7.27201 6.62912 7.27494 6.82935 7.34895L10.6067 8.82745C10.815 8.90807 11.0407 8.9372 11.2634 8.91222C11.4861 8.88725 11.699 8.80895 11.883 8.68435C12.4595 8.29846 13.0653 7.95566 13.6951 7.65888C13.8931 7.56533 14.0644 7.42582 14.1938 7.25268C14.3232 7.07954 14.4068 6.87809 14.4371 6.66612L15.0033 2.74988C15.0405 2.54306 15.1504 2.3552 15.3143 2.21843C15.4782 2.08165 15.6859 2.00444 15.9018 2H23.0982C23.3106 2.00357 23.5154 2.07736 23.6789 2.20921C23.8423 2.34106 23.9547 2.5231 23.9975 2.72535L24.5629 6.63586C24.5946 6.85017 24.6804 7.05353 24.8124 7.22787C24.9445 7.40221 25.1189 7.54212 25.32 7.63516C25.9491 7.93034 26.5529 8.27408 27.1254 8.66308C27.3088 8.78707 27.5209 8.86476 27.7429 8.88918C27.9648 8.91359 28.1894 8.88395 28.3966 8.80292L32.1732 7.32523C32.3733 7.25115 32.5939 7.2481 32.7961 7.31662C32.9984 7.38513 33.1692 7.52081 33.2786 7.69977L36.8768 13.7512C36.985 13.932 37.0237 14.1442 36.9859 14.3501C36.9482 14.556 36.8365 14.7422 36.6707 14.8756L33.4561 17.3289C33.2793 17.4643 33.14 17.6406 33.0511 17.8417C32.9622 18.0428 32.9265 18.2623 32.9472 18.4803C32.9749 18.8188 32.9934 19.159 32.9934 19.5Z" stroke="currentColor" stroke-width="4" stroke-linecap="round" stroke-linejoin="round"/>
</svg>
