<svg width="43" height="43" viewBox="0 0 43 43" fill="none" xmlns="http://www.w3.org/2000/svg">
<path fill-rule="evenodd" clip-rule="evenodd" d="M41 21.5V6.875C41 5.58207 40.4864 4.3421 39.5721 3.42786C38.6579 2.51361 37.4179 2 36.125 2H21.5C20.2071 2 18.9671 2.51361 18.0529 3.42786C17.1386 4.3421 16.625 5.58207 16.625 6.875V21.5C16.625 22.7929 17.1386 24.0329 18.0529 24.9472C18.9671 25.8614 20.2071 26.375 21.5 26.375H36.125C37.4179 26.375 38.6579 25.8614 39.5721 24.9472C40.4864 24.0329 41 22.7929 41 21.5Z" stroke="currentColor" stroke-width="4" stroke-linecap="round" stroke-linejoin="round"/>
<path d="M11.75 16.6323H6.875C5.58207 16.6323 4.34209 17.1459 3.42785 18.0601C2.51361 18.9744 2 20.2144 2 21.5073V36.1323C2 37.4252 2.51361 38.6652 3.42785 39.5795C4.34209 40.4937 5.58207 41.0073 6.875 41.0073H6.88231L21.5073 40.9829C22.799 40.981 24.0371 40.4665 24.9497 39.5525C25.8624 38.6385 26.375 37.3996 26.375 36.1079V31.25M14.1875 26.3823H6.875" stroke="currentColor" stroke-width="4" stroke-linecap="round" stroke-linejoin="round"/>
<path d="M17.8438 30.0313L15.4062 32.4688C14.5937 33.2813 12.5625 34.5 9.3125 36.125" stroke="currentColor" stroke-width="4" stroke-linecap="round" stroke-linejoin="round"/>
<path d="M9.3125 26.3823C10.1266 29.2261 11.3454 31.2565 12.9688 32.4736C15.4062 34.2969 16.625 34.9063 19.0625 36.125M21.5 21.5L28.8125 6.875L36.125 21.5M33.6875 16.625H23.9375" stroke="currentColor" stroke-width="4" stroke-linecap="round" stroke-linejoin="round"/>
</svg>
